<?xml version="1.0" encoding="UTF-8"?>
<!-- Created with Inkscape (http://www.inkscape.org/) -->
<svg width="100vw" height="100vh" version="1.1" viewBox="0 0 115.8 162.76" xml:space="preserve" xmlns="http://www.w3.org/2000/svg"><defs><clipPath id="clipPath121"><rect x=".00017794" y="-1.1066e-6" width="116.4" height="163.36" fill="#63ad65"/></clipPath><clipPath id="clipPath122"><rect x=".00017794" y="-1.1066e-6" width="116.4" height="163.36" fill="#63ad65"/></clipPath><clipPath id="clipPath123"><rect x=".00017794" y="-1.1066e-6" width="116.4" height="163.36" fill="#63ad65"/></clipPath><clipPath id="clipPath124"><rect x=".00017794" y="-1.1066e-6" width="116.4" height="163.36" fill="#63ad65"/></clipPath><clipPath id="clipPath125"><rect x=".00017794" y="-1.1066e-6" width="116.4" height="163.36" fill="#63ad65"/></clipPath><clipPath id="clipPath126"><rect x=".00017794" y="-1.1066e-6" width="116.4" height="163.36" fill="#63ad65"/></clipPath><clipPath id="clipPath127"><rect x=".00017794" y="-1.1066e-6" width="116.4" height="163.36" fill="#63ad65"/></clipPath><clipPath id="clipPath128"><rect x=".00017794" y="-1.1066e-6" width="116.4" height="163.36" fill="#63ad65"/></clipPath><clipPath id="clipPath129"><rect x=".00017794" y="-1.1066e-6" width="116.4" height="163.36" fill="#63ad65"/></clipPath><clipPath id="clipPath130"><rect x=".00017794" y="-1.1066e-6" width="116.4" height="163.36" fill="#63ad65"/></clipPath><clipPath id="clipPath131"><rect x=".00017794" y="-1.1066e-6" width="116.4" height="163.36" fill="#63ad65"/></clipPath><clipPath id="clipPath132"><rect x=".00017794" y="-1.1066e-6" width="116.4" height="163.36" fill="#63ad65"/></clipPath><clipPath id="clipPath133"><rect x=".00017794" y="-1.1066e-6" width="116.4" height="163.36" fill="#63ad65"/></clipPath><clipPath id="clipPath134"><rect x=".00017794" y="-1.1066e-6" width="116.4" height="163.36" fill="#63ad65"/></clipPath><clipPath id="clipPath135"><rect x=".00017794" y="-1.1066e-6" width="116.4" height="163.36" fill="#63ad65"/></clipPath><clipPath id="clipPath144"><path d="m-57.9-128.91h115.8v162.76h-115.8z" fill="#2c1717" stroke-linecap="square" stroke-linejoin="bevel" stroke-width="16.367"/></clipPath></defs><g transform="translate(57.9 128.91)" clip-path="url(#clipPath144)"><g transform="translate(-58.2,-129.21)" clip-path="none"><path d="m58.201 33.603 58.201 33.602v67.205l-58.201 33.602-58.201-33.602 1.3268e-6 -67.205z" clip-path="url(#clipPath135)" fill="#2c1717" stroke="#2c1717" stroke-width="16.694"/><path d="m58.2 52.729 41.637 24.039-2e-6 48.079-41.637 24.039-41.637-24.039 2e-6 -48.079z" clip-path="url(#clipPath134)" fill="#2c1717" stroke="#c9450e" stroke-width="16.688"/><path d="m58.2 81.576 16.655 9.6158-1e-6 19.232-16.655 9.6158-16.655-9.6158 1e-6 -19.232z" clip-path="url(#clipPath133)" fill="#8c0814"/><path d="m116.4 115.28 41.637 24.039v48.079l-41.637 24.039-41.637-24.039 2e-6 -48.079z" clip-path="url(#clipPath132)" fill="#2c1717" stroke="#c9450e" stroke-width="16.688"/><path d="m116.4 144.13 16.655 9.6158v19.232l-16.655 9.6158-16.655-9.6158 1e-6 -19.232z" clip-path="url(#clipPath131)" fill="#8c0814"/><path d="m116.4-67.204 58.201 33.602-1e-5 67.205-58.201 33.602-58.201-33.602 1e-6 -67.205z" clip-path="url(#clipPath130)" fill="#2c1717" stroke="#2c1717" stroke-width="16.694"/><path d="m116.4-48.078 41.637 24.039v48.079l-41.637 24.039-41.637-24.039 2e-6 -48.079z" clip-path="url(#clipPath129)" fill="#2c1717" stroke="#c9450e" stroke-width="16.688"/><path d="m116.4-19.231 16.655 9.6158v19.232l-16.655 9.6158-16.655-9.6158 1e-6 -19.232z" clip-path="url(#clipPath128)" fill="#8c0814"/><path d="m2.5615e-6 -67.204 58.201 33.602-2e-6 67.205-58.201 33.602-58.201-33.602 1e-6 -67.205z" clip-path="url(#clipPath127)" fill="#2c1717" stroke="#2c1717" stroke-width="16.694"/><path d="m2.0491e-6 -48.078 41.637 24.039-1e-6 48.079-41.637 24.039-41.637-24.039 2e-6 -48.079z" clip-path="url(#clipPath126)" fill="#2c1717" stroke="#c9450e" stroke-width="16.688"/><path d="m1.2761e-6 -19.231 16.655 9.6158-1e-6 19.232-16.655 9.6158-16.655-9.6158 1e-6 -19.232z" clip-path="url(#clipPath125)" fill="#8c0814"/><path d="m2.0491e-6 115.28 41.637 24.039-1e-6 48.079-41.637 24.039-41.637-24.039 2e-6 -48.079z" clip-path="url(#clipPath124)" fill="#2c1717" stroke="#c9450e" stroke-width="16.688"/><path d="m1.2761e-6 144.13 16.655 9.6158-1e-6 19.232-16.655 9.6158-16.655-9.6158 1e-6 -19.232z" clip-path="url(#clipPath123)" fill="#8c0814"/><g fill="#2c1717" stroke="#2c1717" stroke-width="16.44"><path d="m7.608e-7 144.13v-38.482" clip-path="url(#clipPath122)"/><path d="m116.4 105.65v38.482" clip-path="url(#clipPath121)"/></g></g><rect x="-8.219" y="3.3647" width="16.567" height="30.785" fill="#2c1717" stroke-linecap="square" stroke-linejoin="bevel" stroke-width="16.494"/></g></svg>
