<?xml version="1.0" encoding="UTF-8"?>
<!-- Created with Inkscape (http://www.inkscape.org/) -->
<svg width="116.4mm" height="163.36mm" version="1.1" viewBox="0 0 116.4 163.36" xml:space="preserve" xmlns="http://www.w3.org/2000/svg"><defs><clipPath id="clipPath103"><rect x=".00017794" y="-1.1066e-6" width="116.4" height="163.36" fill="#63ad65"/></clipPath><clipPath id="clipPath104"><rect x=".00017794" y="-1.1066e-6" width="116.4" height="163.36" fill="#63ad65"/></clipPath><clipPath id="clipPath105"><rect x=".00017794" y="-1.1066e-6" width="116.4" height="163.36" fill="#63ad65"/></clipPath><clipPath id="clipPath106"><rect x=".00017794" y="-1.1066e-6" width="116.4" height="163.36" fill="#63ad65"/></clipPath><clipPath id="clipPath107"><rect x=".00017794" y="-1.1066e-6" width="116.4" height="163.36" fill="#63ad65"/></clipPath><clipPath id="clipPath108"><rect x=".00017794" y="-1.1066e-6" width="116.4" height="163.36" fill="#63ad65"/></clipPath><clipPath id="clipPath109"><rect x=".00017794" y="-1.1066e-6" width="116.4" height="163.36" fill="#63ad65"/></clipPath><clipPath id="clipPath110"><rect x=".00017794" y="-1.1066e-6" width="116.4" height="163.36" fill="#63ad65"/></clipPath><clipPath id="clipPath111"><rect x=".00017794" y="-1.1066e-6" width="116.4" height="163.36" fill="#63ad65"/></clipPath><clipPath id="clipPath112"><rect x=".00017794" y="-1.1066e-6" width="116.4" height="163.36" fill="#63ad65"/></clipPath><clipPath id="clipPath113"><rect x=".00017794" y="-1.1066e-6" width="116.4" height="163.36" fill="#63ad65"/></clipPath><clipPath id="clipPath114"><rect x=".00017794" y="-1.1066e-6" width="116.4" height="163.36" fill="#63ad65"/></clipPath><clipPath id="clipPath115"><rect x=".00017794" y="-1.1066e-6" width="116.4" height="163.36" fill="#63ad65"/></clipPath><clipPath id="clipPath116"><rect x=".00017794" y="-1.1066e-6" width="116.4" height="163.36" fill="#63ad65"/></clipPath><clipPath id="clipPath117"><rect x=".00017794" y="-1.1066e-6" width="116.4" height="163.36" fill="#63ad65"/></clipPath><clipPath id="clipPath118"><rect x=".00017794" y="-1.1066e-6" width="116.4" height="163.36" fill="#63ad65"/></clipPath><clipPath id="clipPath120"><rect x=".00017794" y="-1.1066e-6" width="116.4" height="163.36" fill="#63ad65"/></clipPath><clipPath id="clipPath121"><rect x=".00017794" y="-1.1066e-6" width="116.4" height="163.36" fill="#63ad65"/></clipPath><clipPath id="clipPath122"><rect x=".00017794" y="-1.1066e-6" width="116.4" height="163.36" fill="#63ad65"/></clipPath><clipPath id="clipPath123"><rect x=".00017794" y="-1.1066e-6" width="116.4" height="163.36" fill="#63ad65"/></clipPath><clipPath id="clipPath124"><rect x=".00017794" y="-1.1066e-6" width="116.4" height="163.36" fill="#63ad65"/></clipPath><clipPath id="clipPath125"><rect x=".00017794" y="-1.1066e-6" width="116.4" height="163.36" fill="#63ad65"/></clipPath><clipPath id="clipPath126"><rect x=".00017794" y="-1.1066e-6" width="116.4" height="163.36" fill="#63ad65"/></clipPath><clipPath id="clipPath127"><rect x=".00017794" y="-1.1066e-6" width="116.4" height="163.36" fill="#63ad65"/></clipPath><clipPath id="clipPath128"><rect x=".00017794" y="-1.1066e-6" width="116.4" height="163.36" fill="#63ad65"/></clipPath><clipPath id="clipPath129"><rect x=".00017794" y="-1.1066e-6" width="116.4" height="163.36" fill="#63ad65"/></clipPath><clipPath id="clipPath130"><rect x=".00017794" y="-1.1066e-6" width="116.4" height="163.36" fill="#63ad65"/></clipPath><clipPath id="clipPath131"><rect x=".00017794" y="-1.1066e-6" width="116.4" height="163.36" fill="#63ad65"/></clipPath><clipPath id="clipPath132"><rect x=".00017794" y="-1.1066e-6" width="116.4" height="163.36" fill="#63ad65"/></clipPath><clipPath id="clipPath133"><rect x=".00017794" y="-1.1066e-6" width="116.4" height="163.36" fill="#63ad65"/></clipPath><clipPath id="clipPath134"><rect x=".00017794" y="-1.1066e-6" width="116.4" height="163.36" fill="#63ad65"/></clipPath><clipPath id="clipPath135"><rect x=".00017794" y="-1.1066e-6" width="116.4" height="163.36" fill="#63ad65"/></clipPath></defs><g><path d="m58.201 33.603 58.201 33.602v67.205l-58.201 33.602-58.201-33.602 1.3268e-6 -67.205z" clip-path="url(#clipPath135)" fill="#2c1717" stroke="#2c1717" stroke-width="16.694"/><path d="m58.2 52.729 41.637 24.039-2e-6 48.079-41.637 24.039-41.637-24.039 2e-6 -48.079z" clip-path="url(#clipPath134)" fill="#2c1717" stroke="#c9450e" stroke-width="16.688"/><path d="m58.2 81.576 16.655 9.6158-1e-6 19.232-16.655 9.6158-16.655-9.6158 1e-6 -19.232z" clip-path="url(#clipPath133)" fill="#8c0814"/><path d="m116.4 115.28 41.637 24.039v48.079l-41.637 24.039-41.637-24.039 2e-6 -48.079z" clip-path="url(#clipPath132)" fill="#2c1717" stroke="#c9450e" stroke-width="16.688"/><path d="m116.4 144.13 16.655 9.6158v19.232l-16.655 9.6158-16.655-9.6158 1e-6 -19.232z" clip-path="url(#clipPath131)" fill="#8c0814"/><path d="m116.4-67.204 58.201 33.602-1e-5 67.205-58.201 33.602-58.201-33.602 1e-6 -67.205z" clip-path="url(#clipPath130)" fill="#2c1717" stroke="#2c1717" stroke-width="16.694"/><path d="m116.4-48.078 41.637 24.039v48.079l-41.637 24.039-41.637-24.039 2e-6 -48.079z" clip-path="url(#clipPath129)" fill="#2c1717" stroke="#c9450e" stroke-width="16.688"/><path d="m116.4-19.231 16.655 9.6158v19.232l-16.655 9.6158-16.655-9.6158 1e-6 -19.232z" clip-path="url(#clipPath128)" fill="#8c0814"/><path d="m2.5615e-6 -67.204 58.201 33.602-2e-6 67.205-58.201 33.602-58.201-33.602 1e-6 -67.205z" clip-path="url(#clipPath127)" fill="#2c1717" stroke="#2c1717" stroke-width="16.694"/><path d="m2.0491e-6 -48.078 41.637 24.039-1e-6 48.079-41.637 24.039-41.637-24.039 2e-6 -48.079z" clip-path="url(#clipPath126)" fill="#2c1717" stroke="#c9450e" stroke-width="16.688"/><path d="m1.2761e-6 -19.231 16.655 9.6158-1e-6 19.232-16.655 9.6158-16.655-9.6158 1e-6 -19.232z" clip-path="url(#clipPath125)" fill="#8c0814"/><path d="m2.0491e-6 115.28 41.637 24.039-1e-6 48.079-41.637 24.039-41.637-24.039 2e-6 -48.079z" clip-path="url(#clipPath124)" fill="#2c1717" stroke="#c9450e" stroke-width="16.688"/><path d="m1.2761e-6 144.13 16.655 9.6158-1e-6 19.232-16.655 9.6158-16.655-9.6158 1e-6 -19.232z" clip-path="url(#clipPath123)" fill="#8c0814"/></g><g fill="#2c1717"><g stroke="#2c1717"><path d="m7.608e-7 144.13v-38.482" clip-path="url(#clipPath122)" stroke-width="16.494"/><path d="m116.4 105.65v38.482" clip-path="url(#clipPath121)" stroke-width="16.494"/><path d="m58.2 120.04v38.482" clip-path="url(#clipPath120)" stroke-width="16.394"/><path d="m58.201 33.603 58.201 33.602v67.205l-58.201 33.602-58.201-33.602 1.3268e-6 -67.205z" clip-path="url(#clipPath118)" stroke-width="16.694"/></g><path d="m58.2 52.729 41.637 24.039-2e-6 48.079-41.637 24.039-41.637-24.039 2e-6 -48.079z" clip-path="url(#clipPath117)" stroke="#c9450e" stroke-width="16.688"/></g><g><path d="m58.2 81.576 16.655 9.6158-1e-6 19.232-16.655 9.6158-16.655-9.6158 1e-6 -19.232z" clip-path="url(#clipPath116)" fill="#8c0814"/><path d="m116.4 115.28 41.637 24.039v48.079l-41.637 24.039-41.637-24.039 2e-6 -48.079z" clip-path="url(#clipPath115)" fill="#2c1717" stroke="#c9450e" stroke-width="16.688"/><path d="m116.4 144.13 16.655 9.6158v19.232l-16.655 9.6158-16.655-9.6158 1e-6 -19.232z" clip-path="url(#clipPath114)" fill="#8c0814"/><path d="m116.4-67.204 58.201 33.602-1e-5 67.205-58.201 33.602-58.201-33.602 1e-6 -67.205z" clip-path="url(#clipPath113)" fill="#2c1717" stroke="#2c1717" stroke-width="16.694"/><path d="m116.4-48.078 41.637 24.039v48.079l-41.637 24.039-41.637-24.039 2e-6 -48.079z" clip-path="url(#clipPath112)" fill="#2c1717" stroke="#c9450e" stroke-width="16.688"/><path d="m116.4-19.231 16.655 9.6158v19.232l-16.655 9.6158-16.655-9.6158 1e-6 -19.232z" clip-path="url(#clipPath111)" fill="#8c0814"/><path d="m2.5615e-6 -67.204 58.201 33.602-2e-6 67.205-58.201 33.602-58.201-33.602 1e-6 -67.205z" clip-path="url(#clipPath110)" fill="#2c1717" stroke="#2c1717" stroke-width="16.694"/><path d="m2.0491e-6 -48.078 41.637 24.039-1e-6 48.079-41.637 24.039-41.637-24.039 2e-6 -48.079z" clip-path="url(#clipPath109)" fill="#2c1717" stroke="#c9450e" stroke-width="16.688"/><path d="m1.2761e-6 -19.231 16.655 9.6158-1e-6 19.232-16.655 9.6158-16.655-9.6158 1e-6 -19.232z" clip-path="url(#clipPath108)" fill="#8c0814"/><path d="m2.0491e-6 115.28 41.637 24.039-1e-6 48.079-41.637 24.039-41.637-24.039 2e-6 -48.079z" clip-path="url(#clipPath107)" fill="#2c1717" stroke="#c9450e" stroke-width="16.688"/><path d="m1.2761e-6 144.13 16.655 9.6158-1e-6 19.232-16.655 9.6158-16.655-9.6158 1e-6 -19.232z" clip-path="url(#clipPath106)" fill="#8c0814"/></g><g fill="#2c1717" stroke="#2c1717" stroke-linejoin="bevel"><path d="m7.608e-7 144.13v-38.482" clip-path="url(#clipPath105)" stroke-width="16.494"/><path d="m116.4 105.65v38.482" clip-path="url(#clipPath104)" stroke-width="16.494"/><path d="m58.2 120.04v38.482" clip-path="url(#clipPath103)" stroke-width="16.394"/></g></svg>
