<?xml version="1.0" encoding="UTF-8" standalone="no"?>
<!-- Created with Inkscape (http://www.inkscape.org/) -->

<svg
   width="116.4mm"
   height="163.36166mm"
   viewBox="0 0 116.4 163.36166"
   version="1.1"
   id="svg1"
   xml:space="preserve"
   sodipodi:docname="g68.svg"
   inkscape:version="1.3.2 (091e20ef0f, 2023-11-25)"
   xmlns:inkscape="http://www.inkscape.org/namespaces/inkscape"
   xmlns:sodipodi="http://sodipodi.sourceforge.net/DTD/sodipodi-0.dtd"
   xmlns="http://www.w3.org/2000/svg"
   xmlns:svg="http://www.w3.org/2000/svg"><sodipodi:namedview
     id="namedview1"
     pagecolor="#ffffff"
     bordercolor="#000000"
     borderopacity="0.25"
     inkscape:showpageshadow="2"
     inkscape:pageopacity="0.0"
     inkscape:pagecheckerboard="0"
     inkscape:deskcolor="#d1d1d1"
     inkscape:document-units="mm"
     inkscape:zoom="0.92191996"
     inkscape:cx="203.92226"
     inkscape:cy="320.52674"
     inkscape:window-width="1920"
     inkscape:window-height="1011"
     inkscape:window-x="0"
     inkscape:window-y="0"
     inkscape:window-maximized="1"
     inkscape:current-layer="svg1" /><defs
     id="defs1"><clipPath
       clipPathUnits="userSpaceOnUse"
       id="clipPath52"><rect
         style="opacity:1;fill:#63ad65;fill-opacity:1;stroke:none;stroke-width:0.165;stroke-linecap:butt;stroke-linejoin:miter;stroke-dasharray:none;stroke-opacity:1"
         id="rect53"
         width="1.16443"
         height="1.63422"
         x="201.54344"
         y="3.8916109" /></clipPath></defs><g
     id="layer1"
     transform="translate(-1.7794228e-4)"><g
       id="g52"
       clip-path="url(#clipPath52)"
       transform="matrix(99.96307,0,0,99.96307,-20146.901,-389.01737)"><path
         style="fill:#2c1717;fill-opacity:1;stroke:#2c1717;stroke-width:12.5822;stroke-linecap:butt;stroke-linejoin:miter;stroke-dasharray:none;stroke-opacity:1"
         id="path27"
         d="M 1.3572274e-6,246.34754 43.866316,271.67377 43.866315,322.32623 -1.3572274e-6,347.65246 -43.866316,322.32623 l 10e-7,-50.65246 z"
         transform="matrix(0.01327271,0,0,0.01327271,202.12566,0.95806186)" /><path
         style="fill:#2c1717;fill-opacity:1;stroke:#c9450e;stroke-width:19.1294;stroke-linecap:butt;stroke-linejoin:miter;stroke-dasharray:none;stroke-opacity:1"
         id="path28"
         d="M 1.4767106e-6,241.88836 47.728079,269.44418 l -2e-6,55.11164 L -1.4767106e-6,352.11164 -47.728079,324.55582 l 2e-6,-55.11164 z"
         transform="matrix(0.0087271,0,0,0.0087271,202.12566,2.3081079)" /><path
         style="fill:#8c0814;fill-opacity:1;stroke:none;stroke-width:0.167;stroke-linecap:butt;stroke-linejoin:miter;stroke-dasharray:none;stroke-opacity:1"
         id="path29"
         d="M 5.8424653e-7,275.1956 18.883161,286.0978 18.88316,307.9022 -5.8424652e-7,318.8044 -18.883161,307.9022 l 1e-6,-21.8044 z"
         transform="matrix(0.00882327,0,0,0.00882327,202.12566,2.2795459)" /><path
         style="fill:#2c1717;fill-opacity:1;stroke:#c9450e;stroke-width:19.1294;stroke-linecap:butt;stroke-linejoin:miter;stroke-dasharray:none;stroke-opacity:1"
         id="path30"
         d="M 1.4767106e-6,241.88836 47.728079,269.44418 l -2e-6,55.11164 L -1.4767106e-6,352.11164 -47.728079,324.55582 l 2e-6,-55.11164 z"
         transform="matrix(0.0087271,0,0,0.0087271,202.70787,2.933892)" /><path
         style="fill:#8c0814;fill-opacity:1;stroke:none;stroke-width:0.167;stroke-linecap:butt;stroke-linejoin:miter;stroke-dasharray:none;stroke-opacity:1"
         id="path31"
         d="M 5.8424653e-7,275.1956 18.883161,286.0978 18.88316,307.9022 -5.8424652e-7,318.8044 -18.883161,307.9022 l 1e-6,-21.8044 z"
         transform="matrix(0.00882327,0,0,0.00882327,202.70787,2.90533)" /><path
         style="fill:#2c1717;fill-opacity:1;stroke:#2c1717;stroke-width:12.5822;stroke-linecap:butt;stroke-linejoin:miter;stroke-dasharray:none;stroke-opacity:1"
         id="path35"
         d="M 1.3572274e-6,246.34754 43.866316,271.67377 43.866315,322.32623 -1.3572274e-6,347.65246 -43.866316,322.32623 l 10e-7,-50.65246 z"
         transform="matrix(0.01327271,0,0,0.01327271,202.70788,-0.05038114)" /><path
         style="fill:#2c1717;fill-opacity:1;stroke:#c9450e;stroke-width:19.1294;stroke-linecap:butt;stroke-linejoin:miter;stroke-dasharray:none;stroke-opacity:1"
         id="path36"
         d="M 1.4767106e-6,241.88836 47.728079,269.44418 l -2e-6,55.11164 L -1.4767106e-6,352.11164 -47.728079,324.55582 l 2e-6,-55.11164 z"
         transform="matrix(0.0087271,0,0,0.0087271,202.70788,1.2996649)" /><path
         style="fill:#8c0814;fill-opacity:1;stroke:none;stroke-width:0.167;stroke-linecap:butt;stroke-linejoin:miter;stroke-dasharray:none;stroke-opacity:1"
         id="path37"
         d="M 5.8424653e-7,275.1956 18.883161,286.0978 18.88316,307.9022 -5.8424652e-7,318.8044 -18.883161,307.9022 l 1e-6,-21.8044 z"
         transform="matrix(0.00882327,0,0,0.00882327,202.70788,1.2711029)" /><path
         style="fill:#2c1717;fill-opacity:1;stroke:#2c1717;stroke-width:12.5822;stroke-linecap:butt;stroke-linejoin:miter;stroke-dasharray:none;stroke-opacity:1"
         id="path38"
         d="M 1.3572274e-6,246.34754 43.866316,271.67377 43.866315,322.32623 -1.3572274e-6,347.65246 -43.866316,322.32623 l 10e-7,-50.65246 z"
         transform="matrix(0.01327271,0,0,0.01327271,201.54344,-0.05038114)" /><path
         style="fill:#2c1717;fill-opacity:1;stroke:#c9450e;stroke-width:19.1294;stroke-linecap:butt;stroke-linejoin:miter;stroke-dasharray:none;stroke-opacity:1"
         id="path39"
         d="M 1.4767106e-6,241.88836 47.728079,269.44418 l -2e-6,55.11164 L -1.4767106e-6,352.11164 -47.728079,324.55582 l 2e-6,-55.11164 z"
         transform="matrix(0.0087271,0,0,0.0087271,201.54344,1.2996649)" /><path
         style="fill:#8c0814;fill-opacity:1;stroke:none;stroke-width:0.167;stroke-linecap:butt;stroke-linejoin:miter;stroke-dasharray:none;stroke-opacity:1"
         id="path40"
         d="M 5.8424653e-7,275.1956 18.883161,286.0978 18.88316,307.9022 -5.8424652e-7,318.8044 -18.883161,307.9022 l 1e-6,-21.8044 z"
         transform="matrix(0.00882327,0,0,0.00882327,201.54344,1.2711029)" /><path
         style="fill:#2c1717;fill-opacity:1;stroke:#c9450e;stroke-width:19.1294;stroke-linecap:butt;stroke-linejoin:miter;stroke-dasharray:none;stroke-opacity:1"
         id="path41"
         d="M 1.4767106e-6,241.88836 47.728079,269.44418 l -2e-6,55.11164 L -1.4767106e-6,352.11164 -47.728079,324.55582 l 2e-6,-55.11164 z"
         transform="matrix(0.0087271,0,0,0.0087271,201.54344,2.933892)" /><path
         style="fill:#8c0814;fill-opacity:1;stroke:none;stroke-width:0.167;stroke-linecap:butt;stroke-linejoin:miter;stroke-dasharray:none;stroke-opacity:1"
         id="path42"
         d="M 5.8424653e-7,275.1956 18.883161,286.0978 18.88316,307.9022 -5.8424652e-7,318.8044 -18.883161,307.9022 l 1e-6,-21.8044 z"
         transform="matrix(0.00882327,0,0,0.00882327,201.54344,2.90533)" /><path
         style="opacity:1;fill:#2c1717;fill-opacity:1;stroke:#2c1717;stroke-width:0.165;stroke-linecap:butt;stroke-linejoin:miter;stroke-dasharray:none;stroke-opacity:1"
         d="M 201.54344,5.3334552 V 4.9484906"
         id="path47" /><path
         style="opacity:1;fill:#2c1717;fill-opacity:1;stroke:#2c1717;stroke-width:0.165;stroke-linecap:butt;stroke-linejoin:miter;stroke-dasharray:none;stroke-opacity:1"
         d="M 202.70787,4.9484906 V 5.3334552"
         id="path48" /><path
         style="opacity:1;fill:#2c1717;fill-opacity:1;stroke:#2c1717;stroke-width:0.164;stroke-linecap:butt;stroke-linejoin:miter;stroke-dasharray:none;stroke-opacity:1"
         d="M 202.12566,5.092443 V 5.4774065"
         id="path49" /></g><g
       id="g68"
       clip-path="url(#clipPath52)"
       transform="matrix(99.96307,0,0,99.96307,-20146.901,-389.01737)"><path
         style="fill:#2c1717;fill-opacity:1;stroke:#2c1717;stroke-width:12.5822;stroke-linecap:butt;stroke-linejoin:miter;stroke-dasharray:none;stroke-opacity:1"
         id="path53"
         d="M 1.3572274e-6,246.34754 43.866316,271.67377 43.866315,322.32623 -1.3572274e-6,347.65246 -43.866316,322.32623 l 10e-7,-50.65246 z"
         transform="matrix(0.01327271,0,0,0.01327271,202.12566,0.95806186)" /><path
         style="fill:#2c1717;fill-opacity:1;stroke:#c9450e;stroke-width:19.1294;stroke-linecap:butt;stroke-linejoin:miter;stroke-dasharray:none;stroke-opacity:1"
         id="path54"
         d="M 1.4767106e-6,241.88836 47.728079,269.44418 l -2e-6,55.11164 L -1.4767106e-6,352.11164 -47.728079,324.55582 l 2e-6,-55.11164 z"
         transform="matrix(0.0087271,0,0,0.0087271,202.12566,2.3081079)" /><path
         style="fill:#8c0814;fill-opacity:1;stroke:none;stroke-width:0.167;stroke-linecap:butt;stroke-linejoin:miter;stroke-dasharray:none;stroke-opacity:1"
         id="path55"
         d="M 5.8424653e-7,275.1956 18.883161,286.0978 18.88316,307.9022 -5.8424652e-7,318.8044 -18.883161,307.9022 l 1e-6,-21.8044 z"
         transform="matrix(0.00882327,0,0,0.00882327,202.12566,2.2795459)" /><path
         style="fill:#2c1717;fill-opacity:1;stroke:#c9450e;stroke-width:19.1294;stroke-linecap:butt;stroke-linejoin:miter;stroke-dasharray:none;stroke-opacity:1"
         id="path56"
         d="M 1.4767106e-6,241.88836 47.728079,269.44418 l -2e-6,55.11164 L -1.4767106e-6,352.11164 -47.728079,324.55582 l 2e-6,-55.11164 z"
         transform="matrix(0.0087271,0,0,0.0087271,202.70787,2.933892)" /><path
         style="fill:#8c0814;fill-opacity:1;stroke:none;stroke-width:0.167;stroke-linecap:butt;stroke-linejoin:miter;stroke-dasharray:none;stroke-opacity:1"
         id="path57"
         d="M 5.8424653e-7,275.1956 18.883161,286.0978 18.88316,307.9022 -5.8424652e-7,318.8044 -18.883161,307.9022 l 1e-6,-21.8044 z"
         transform="matrix(0.00882327,0,0,0.00882327,202.70787,2.90533)" /><path
         style="fill:#2c1717;fill-opacity:1;stroke:#2c1717;stroke-width:12.5822;stroke-linecap:butt;stroke-linejoin:miter;stroke-dasharray:none;stroke-opacity:1"
         id="path58"
         d="M 1.3572274e-6,246.34754 43.866316,271.67377 43.866315,322.32623 -1.3572274e-6,347.65246 -43.866316,322.32623 l 10e-7,-50.65246 z"
         transform="matrix(0.01327271,0,0,0.01327271,202.70788,-0.05038114)" /><path
         style="fill:#2c1717;fill-opacity:1;stroke:#c9450e;stroke-width:19.1294;stroke-linecap:butt;stroke-linejoin:miter;stroke-dasharray:none;stroke-opacity:1"
         id="path59"
         d="M 1.4767106e-6,241.88836 47.728079,269.44418 l -2e-6,55.11164 L -1.4767106e-6,352.11164 -47.728079,324.55582 l 2e-6,-55.11164 z"
         transform="matrix(0.0087271,0,0,0.0087271,202.70788,1.2996649)" /><path
         style="fill:#8c0814;fill-opacity:1;stroke:none;stroke-width:0.167;stroke-linecap:butt;stroke-linejoin:miter;stroke-dasharray:none;stroke-opacity:1"
         id="path60"
         d="M 5.8424653e-7,275.1956 18.883161,286.0978 18.88316,307.9022 -5.8424652e-7,318.8044 -18.883161,307.9022 l 1e-6,-21.8044 z"
         transform="matrix(0.00882327,0,0,0.00882327,202.70788,1.2711029)" /><path
         style="fill:#2c1717;fill-opacity:1;stroke:#2c1717;stroke-width:12.5822;stroke-linecap:butt;stroke-linejoin:miter;stroke-dasharray:none;stroke-opacity:1"
         id="path61"
         d="M 1.3572274e-6,246.34754 43.866316,271.67377 43.866315,322.32623 -1.3572274e-6,347.65246 -43.866316,322.32623 l 10e-7,-50.65246 z"
         transform="matrix(0.01327271,0,0,0.01327271,201.54344,-0.05038114)" /><path
         style="fill:#2c1717;fill-opacity:1;stroke:#c9450e;stroke-width:19.1294;stroke-linecap:butt;stroke-linejoin:miter;stroke-dasharray:none;stroke-opacity:1"
         id="path62"
         d="M 1.4767106e-6,241.88836 47.728079,269.44418 l -2e-6,55.11164 L -1.4767106e-6,352.11164 -47.728079,324.55582 l 2e-6,-55.11164 z"
         transform="matrix(0.0087271,0,0,0.0087271,201.54344,1.2996649)" /><path
         style="fill:#8c0814;fill-opacity:1;stroke:none;stroke-width:0.167;stroke-linecap:butt;stroke-linejoin:miter;stroke-dasharray:none;stroke-opacity:1"
         id="path63"
         d="M 5.8424653e-7,275.1956 18.883161,286.0978 18.88316,307.9022 -5.8424652e-7,318.8044 -18.883161,307.9022 l 1e-6,-21.8044 z"
         transform="matrix(0.00882327,0,0,0.00882327,201.54344,1.2711029)" /><path
         style="fill:#2c1717;fill-opacity:1;stroke:#c9450e;stroke-width:19.1294;stroke-linecap:butt;stroke-linejoin:miter;stroke-dasharray:none;stroke-opacity:1"
         id="path64"
         d="M 1.4767106e-6,241.88836 47.728079,269.44418 l -2e-6,55.11164 L -1.4767106e-6,352.11164 -47.728079,324.55582 l 2e-6,-55.11164 z"
         transform="matrix(0.0087271,0,0,0.0087271,201.54344,2.933892)" /><path
         style="fill:#8c0814;fill-opacity:1;stroke:none;stroke-width:0.167;stroke-linecap:butt;stroke-linejoin:miter;stroke-dasharray:none;stroke-opacity:1"
         id="path65"
         d="M 5.8424653e-7,275.1956 18.883161,286.0978 18.88316,307.9022 -5.8424652e-7,318.8044 -18.883161,307.9022 l 1e-6,-21.8044 z"
         transform="matrix(0.00882327,0,0,0.00882327,201.54344,2.90533)" /><path
         style="opacity:1;fill:#2c1717;fill-opacity:1;stroke:#2c1717;stroke-width:0.165;stroke-linecap:butt;stroke-linejoin:miter;stroke-dasharray:none;stroke-opacity:1"
         d="M 201.54344,5.3334552 V 4.9484906"
         id="path66" /><path
         style="opacity:1;fill:#2c1717;fill-opacity:1;stroke:#2c1717;stroke-width:0.165;stroke-linecap:butt;stroke-linejoin:miter;stroke-dasharray:none;stroke-opacity:1"
         d="M 202.70787,4.9484906 V 5.3334552"
         id="path67" /><path
         style="opacity:1;fill:#2c1717;fill-opacity:1;stroke:#2c1717;stroke-width:0.164;stroke-linecap:butt;stroke-linejoin:miter;stroke-dasharray:none;stroke-opacity:1"
         d="M 202.12566,5.092443 V 5.4774065"
         id="path68" /></g></g></svg>
